# xmcd CD database file
#
# Track frame offsets:
#	150
#	17055
#	41139
#	59232
#	83040
#	96195
#	118020
#	138366
#	155792
#	182603
#
# Disc length: 2595 seconds
#
# Revision: 0
# Processed by: cddbd v1.5.2PL0 Copyright (c) Steve Scherf et al.
# Submitted via: NeoAudio 9.9.9
#
DISCID=8a0a210a
DTITLE=Headphone - Ghostwriter
DYEAR=2008
DGENRE=Salsa
TTITLE0=In White Rooms
TTITLE1=Ghostwriter
TTITLE2=Nothing's There
TTITLE3=Girlie
TTITLE4=Skinner
TTITLE5=She Is Electric
TTITLE6=Lidocaine
TTITLE7=The Pugilist
TTITLE8=Moneylender
TTITLE9=Film
EXTD=YEAR: 2008
EXTT0=
EXTT1=
EXTT2=
EXTT3=
EXTT4=
EXTT5=
EXTT6=
EXTT7=
EXTT8=
EXTT9=
PLAYORDER=
